<svg width="32" height="32" viewBox="0 0 32 32" fill="none" xmlns="http://www.w3.org/2000/svg">
<path d="M2.66669 16.0001C2.66669 23.3639 8.63622 29.3334 16 29.3334C18.2092 29.3334 20 27.5426 20 25.3334V24.6667C20 24.0475 20 23.7379 20.0342 23.478C20.2705 21.683 21.683 20.2706 23.4779 20.0343C23.7378 20.0001 24.0475 20.0001 24.6667 20.0001H25.3334C27.5425 20.0001 29.3334 18.2092 29.3334 16.0001C29.3334 8.63628 23.3638 2.66675 16 2.66675C8.63622 2.66675 2.66669 8.63628 2.66669 16.0001Z" stroke="black" stroke-width="2" stroke-linecap="round" stroke-linejoin="round"/>
<path d="M9.33335 17.3334C10.0697 17.3334 10.6667 16.7365 10.6667 16.0001C10.6667 15.2637 10.0697 14.6667 9.33335 14.6667C8.59697 14.6667 8.00002 15.2637 8.00002 16.0001C8.00002 16.7365 8.59697 17.3334 9.33335 17.3334Z" stroke="black" stroke-width="2" stroke-linecap="round" stroke-linejoin="round"/>
<path d="M21.3334 12.0001C22.0697 12.0001 22.6667 11.4031 22.6667 10.6667C22.6667 9.93037 22.0697 9.33341 21.3334 9.33341C20.597 9.33341 20 9.93037 20 10.6667C20 11.4031 20.597 12.0001 21.3334 12.0001Z" stroke="black" stroke-width="2" stroke-linecap="round" stroke-linejoin="round"/>
<path d="M13.3334 10.6667C14.0697 10.6667 14.6667 10.0698 14.6667 9.33341C14.6667 8.59704 14.0697 8.00008 13.3334 8.00008C12.597 8.00008 12 8.59704 12 9.33341C12 10.0698 12.597 10.6667 13.3334 10.6667Z" stroke="black" stroke-width="2" stroke-linecap="round" stroke-linejoin="round"/>
</svg>
