<svg width="32" height="32" viewBox="0 0 32 32" fill="none" xmlns="http://www.w3.org/2000/svg">
<path d="M2.66666 18.6667L29.3333 18.6667M10.6667 28H21.3333M9.06666 24H22.9333C25.1735 24 26.2936 24 27.1493 23.564C27.9019 23.1805 28.5139 22.5686 28.8974 21.816C29.3333 20.9603 29.3333 19.8402 29.3333 17.6V10.4C29.3333 8.15979 29.3333 7.03969 28.8974 6.18404C28.5139 5.43139 27.9019 4.81947 27.1493 4.43597C26.2936 4 25.1735 4 22.9333 4H9.06666C6.82645 4 5.70635 4 4.8507 4.43597C4.09805 4.81947 3.48613 5.43139 3.10264 6.18404C2.66666 7.03969 2.66666 8.15979 2.66666 10.4V17.6C2.66666 19.8402 2.66666 20.9603 3.10264 21.816C3.48613 22.5686 4.09805 23.1805 4.8507 23.564C5.70635 24 6.82645 24 9.06666 24Z" stroke="black" stroke-width="2" stroke-linecap="round" stroke-linejoin="round"/>
</svg>
