<svg width="32" height="32" viewBox="0 0 32 32" fill="none" xmlns="http://www.w3.org/2000/svg">
<path d="M16 23.3334H16.0134M10.9334 29.3334H21.0667C22.5602 29.3334 23.3069 29.3334 23.8773 29.0428C24.3791 28.7871 24.787 28.3792 25.0427 27.8774C25.3334 27.307 25.3334 26.5602 25.3334 25.0667V6.93341C25.3334 5.43994 25.3334 4.6932 25.0427 4.12277C24.787 3.62101 24.3791 3.21306 23.8773 2.9574C23.3069 2.66675 22.5602 2.66675 21.0667 2.66675H10.9334C9.43988 2.66675 8.69314 2.66675 8.12271 2.9574C7.62095 3.21306 7.213 3.62101 6.95734 4.12277C6.66669 4.6932 6.66669 5.43994 6.66669 6.93342V25.0667C6.66669 26.5602 6.66669 27.307 6.95734 27.8774C7.213 28.3792 7.62095 28.7871 8.12271 29.0428C8.69314 29.3334 9.43988 29.3334 10.9334 29.3334ZM16.6667 23.3334C16.6667 23.7016 16.3682 24.0001 16 24.0001C15.6318 24.0001 15.3334 23.7016 15.3334 23.3334C15.3334 22.9652 15.6318 22.6667 16 22.6667C16.3682 22.6667 16.6667 22.9652 16.6667 23.3334Z" stroke="black" stroke-width="2" stroke-linecap="round" stroke-linejoin="round"/>
</svg>
