<svg width="32" height="32" viewBox="0 0 32 32" fill="none" xmlns="http://www.w3.org/2000/svg">
<path d="M20.7274 13.234C21.226 12.3481 21.6417 11.5488 21.8981 10.9404C23.1431 7.98604 21.912 4.58777 18.9026 3.20158C15.8932 1.81539 12.8712 3.25274 11.545 6.02798C9.00878 4.28768 5.62559 4.54327 3.75987 7.25906C1.89414 9.97486 2.47969 13.5228 5.03507 15.4588C6.19482 16.3375 8.4885 17.6323 10.648 18.7847M21.7296 15.6667C21.1668 12.6427 18.5938 10.4312 15.3542 11.0323C12.1146 11.6334 10.0199 14.5562 10.4578 17.7321C10.8097 20.2837 12.7519 26.2704 13.5019 28.5254C13.6042 28.8331 13.6554 28.987 13.7567 29.0943C13.845 29.1877 13.9623 29.2555 14.0874 29.2852C14.231 29.3193 14.3898 29.2867 14.7075 29.2214C17.0354 28.7434 23.1911 27.4321 25.5768 26.461C28.5462 25.2524 30.0786 21.9789 28.9308 18.8707C27.783 15.7626 24.6298 14.6421 21.7296 15.6667Z" stroke="black" stroke-width="2" stroke-linecap="round" stroke-linejoin="round"/>
</svg>
