<svg width="64" height="64" viewBox="0 0 64 64" fill="none" xmlns="http://www.w3.org/2000/svg">
<rect width="64" height="64" fill="#FF7EA5"/>
<path d="M18.9091 25.8909C18.9091 23.447 18.9091 22.2251 19.3847 21.2916C19.8031 20.4706 20.4706 19.803 21.2917 19.3847C22.2251 18.9091 23.447 18.9091 25.8909 18.9091H38.1091C40.553 18.9091 41.7749 18.9091 42.7083 19.3847C43.5294 19.803 44.1969 20.4706 44.6153 21.2916C45.0909 22.2251 45.0909 23.447 45.0909 25.8909V33.7454C45.0909 36.1893 45.0909 37.4112 44.6153 38.3447C44.1969 39.1657 43.5294 39.8333 42.7083 40.2516C41.7749 40.7272 40.553 40.7272 38.1091 40.7272H34.4491C33.5414 40.7272 33.0875 40.7272 32.6534 40.8163C32.2683 40.8954 31.8956 41.0261 31.5454 41.205C31.1508 41.4066 30.7964 41.6901 30.0876 42.2572L26.6178 45.033C26.0126 45.5172 25.71 45.7592 25.4553 45.7595C25.2338 45.7598 25.0243 45.6591 24.8861 45.486C24.7273 45.2869 24.7273 44.8994 24.7273 44.1243V40.7272C23.3746 40.7272 22.6982 40.7272 22.1433 40.5786C20.6375 40.1751 19.4613 38.9989 19.0578 37.493C18.9091 36.9381 18.9091 36.2617 18.9091 34.9091V25.8909Z" fill="white" stroke="white" stroke-width="2" stroke-linecap="round" stroke-linejoin="round"/>
<path fill-rule="evenodd" clip-rule="evenodd" d="M31.9955 25.7443C30.6868 24.2332 28.5045 23.8267 26.8648 25.2104C25.2252 26.5941 24.9943 28.9075 26.282 30.544C27.0797 31.5578 29.082 33.4096 30.4901 34.6718C31.0073 35.1355 31.2659 35.3673 31.5763 35.4607C31.8425 35.5409 32.1484 35.5409 32.4147 35.4607C32.725 35.3673 32.9836 35.1355 33.5009 34.6718C34.909 33.4096 36.9112 31.5578 37.709 30.544C38.9966 28.9075 38.7939 26.5795 37.1261 25.2104C35.4582 23.8413 33.3041 24.2332 31.9955 25.7443Z" fill="#FF7EA5"/>
</svg>
