<svg width="32" height="32" viewBox="0 0 32 32" fill="none" xmlns="http://www.w3.org/2000/svg">
<path d="M28 12.6667V10.4C28 8.15979 28 7.03968 27.564 6.18404C27.1805 5.43139 26.5686 4.81947 25.816 4.43597C24.9603 4 23.8402 4 21.6 4H10.4C8.15979 4 7.03969 4 6.18404 4.43597C5.43139 4.81947 4.81947 5.43139 4.43597 6.18404C4 7.03968 4 8.15979 4 10.4V21.6C4 23.8402 4 24.9603 4.43597 25.816C4.81947 26.5686 5.43139 27.1805 6.18404 27.564C7.03969 28 8.15979 28 10.4 28H12.6667M23.1816 23.6151L20.9172 27.8204C20.5471 28.5078 20.362 28.8515 20.1364 28.9411C19.9406 29.019 19.7195 28.9997 19.5401 28.8891C19.3335 28.7616 19.2108 28.3911 18.9654 27.6499L15.3339 16.6817C15.119 16.0327 15.0115 15.7082 15.0888 15.4921C15.156 15.304 15.304 15.156 15.4921 15.0888C15.7082 15.0115 16.0327 15.119 16.6817 15.3339L27.6499 18.9655C28.391 19.2109 28.7616 19.3336 28.889 19.5402C28.9997 19.7195 29.019 19.9407 28.9411 20.1365C28.8514 20.362 28.5077 20.5471 27.8203 20.9172L23.6151 23.1816C23.5103 23.238 23.458 23.2662 23.4121 23.3025C23.3714 23.3346 23.3346 23.3714 23.3025 23.4121C23.2662 23.458 23.238 23.5103 23.1816 23.6151Z" stroke="black" stroke-width="2" stroke-linecap="round" stroke-linejoin="round"/>
</svg>
