<svg width="32" height="32" viewBox="0 0 32 32" fill="none" xmlns="http://www.w3.org/2000/svg">
<path d="M16 2.66675C19.3351 6.31789 21.2304 11.0561 21.3334 16.0001C21.2304 20.944 19.3351 25.6823 16 29.3334M16 2.66675C12.665 6.31789 10.7697 11.0561 10.6667 16.0001C10.7697 20.944 12.665 25.6823 16 29.3334M16 2.66675C8.63622 2.66675 2.66669 8.63628 2.66669 16.0001C2.66669 23.3639 8.63622 29.3334 16 29.3334M16 2.66675C23.3638 2.66675 29.3334 8.63628 29.3334 16.0001C29.3334 23.3639 23.3638 29.3334 16 29.3334M3.33338 12.0001H28.6667M3.33335 20.0001H28.6667" stroke="black" stroke-width="2" stroke-linecap="round" stroke-linejoin="round"/>
</svg>
